PathFileType	4	(X/Y/Z)	Patient4_TMGait_0pt5_01_left_11.trc.trc
DataRate	CameraRate	NumFrames	NumMarkers	Units	OrigDataRate	OrigDataStartFrame	OrigNumFrames
80.459770114943	80.459770114943	4	33	mm	80.459770114943	36	       141
Frame#	Time	L.ASIS			Sacral			L.Shoulder			Chest			R.Shoulder			Neck			R.ASIS			R.Thigh.Superior			R.Thigh.Lateral			R.Thigh.Inferior			R.Patella			L.Thigh.Superior			L.Thigh.Lateral			L.Thigh.Inferior			L.Patella			L.Shank.Superior			L.Shank.Lateral			L.Shank.Inferior			R.Shank.Superior			R.Shank.Lateral			R.Shank.Inferior			R.Heel			R.Midfoot.Superior			R.Midfoot.Lateral			R.Toe			L.Heel			L.Midfoot.Lateral			L.Midfoot.Superior			L.Toe			L.Elbow			L.Wrist			R.Elbow			R.Wrist			
		X1	Y1	Z1	X2	Y2	Z2	X3	Y3	Z3	X4	Y4	Z4	X5	Y5	Z5	X6	Y6	Z6	X7	Y7	Z7	X8	Y8	Z8	X9	Y9	Z9	X10	Y10	Z10	X11	Y11	Z11	X12	Y12	Z12	X13	Y13	Z13	X14	Y14	Z14	X15	Y15	Z15	X16	Y16	Z16	X17	Y17	Z17	X18	Y18	Z18	X19	Y19	Z19	X20	Y20	Z20	X21	Y21	Z21	X22	Y22	Z22	X23	Y23	Z23	X24	Y24	Z24	X25	Y25	Z25	X26	Y26	Z26	X27	Y27	Z27	X28	Y28	Z28	X29	Y29	Z29	X30	Y30	Z30	X31	Y31	Z31	X32	Y32	Z32	X33	Y33	Z33	

36	15.245000000000	768.455205178367	965.165651710463	317.591431903882	558.189233005815	1005.139826089509	481.133714113649	711.271383219787	1446.182794206219	333.092986689981	825.292849999549	1363.145914971009	480.459615375486	751.774568142719	1420.117004852796	665.353834016217	719.594747167900	1494.099852989661	489.717869265972	786.915179279724	935.100906718109	592.018746275865	786.055669415115	724.389896832677	570.069263057943	678.813632545716	632.877584529272	628.726367471579	746.356134818194	563.015119014708	556.558636045080	724.469299627360	469.755210559616	564.868020104886	839.155932728069	767.857136825728	354.226195418821	777.038894524830	639.490465696882	286.628276662613	869.571114484001	574.397667654963	354.707330498471	881.612926248804	501.591724912951	361.221700143083	860.710115783268	427.815844039466	352.452727388265	784.199042232170	307.070737724595	296.703172935680	842.104473301650	199.237333349831	366.905136576885	670.210869764968	392.745192785148	569.465335227265	567.234319032936	316.169481088435	627.002064756521	586.031648012994	210.591635908663	569.135433551182	415.133654212591	71.084555644960	534.157938593475	593.309567589396	101.327128812985	572.699608798343	496.535017824588	47.061528647047	606.399108408945	703.147717343354	36.702613449508	595.369332187831	723.021742342484	38.679104139723	398.312096342742	803.061328104890	36.376977971849	323.655901741966	883.940493459317	97.780920296229	355.604105197544	1013.715942631143	45.727859861505	337.655422205382	609.588352099379	1115.424248962658	199.115525927792	641.575900281789	854.479981011092	193.556405715068	859.136515287715	1092.692121396910	769.859879120039	1105.013238826878	1117.860349329179	718.361006634758	
37	15.257428571429	769.643638929431	965.271003444732	314.559032293682	558.792558885963	1005.465795158935	477.671448603029	712.265768088869	1446.387647566847	330.156444532480	825.973738886489	1363.309337328533	477.762087552297	752.141746687055	1420.432754308838	662.513362034549	720.301415896923	1494.335356388402	486.813099169732	787.206030224349	935.359247123086	589.047250571176	786.881454822133	724.536176795899	568.116450905233	679.827448349791	632.945042680741	627.001598825732	748.103235153544	562.857501600143	555.379876594074	726.596466346187	468.530160827868	564.851098021111	840.143224446822	767.956690896353	351.579210201832	776.743232891963	639.311819304002	285.151957430603	869.469236535176	573.881032217360	352.481964281106	880.666239090647	500.872690808853	360.013062123281	859.128752968651	426.930704178941	351.568892736165	781.521082955090	306.902592296908	295.814797287242	837.597448484248	198.660560930801	366.722248848492	670.440218970084	392.450945602641	569.153630218039	565.821759240094	317.982740115112	626.507221578811	583.216307149242	211.740248443522	569.366428060218	409.911532117671	74.874420620030	534.587034010891	588.621157002522	101.718790119301	573.146479342448	490.916523300751	48.833672396397	606.592394837986	697.046171466655	36.611866167760	595.288506683061	716.817396087282	38.589381252641	398.265952830318	796.819667342956	36.299171198874	323.529935124544	877.741562092186	97.660914432737	355.565142668177	1007.564429593168	45.439341217079	337.504417714942	614.196561764535	1114.670373315622	194.722328353672	654.063749202596	854.830552867481	187.788842840734	852.782965952212	1090.496587151036	768.242503344563	1100.619587611729	1104.168578685276	721.126784910886	
38	15.269857142857	770.902226322734	965.256842548452	311.635924146919	559.377573046051	1005.705643551591	474.227213398428	713.312444947775	1446.544573150899	327.076636904173	826.619982132283	1363.498702718702	475.017286526169	752.321731499565	1420.758037846152	659.571007856514	720.951032500812	1494.568431994514	483.743552929058	787.443151151426	935.652209292676	586.126220408233	788.248833629271	724.783561914933	566.329106446886	681.620828444239	632.860763167023	625.381365083404	750.854402514221	562.696973040171	554.335243047036	729.827444155139	467.164560882087	565.024697823794	840.858722838963	767.617201440374	348.849333875407	775.838282696496	638.923328264983	283.622515463397	868.709056058952	573.080623162825	350.231293419131	879.187666962359	500.033488915107	358.697458998578	857.036634477179	425.970718685755	350.562344520821	778.399363050250	306.569721847469	294.931519141032	832.903107590511	198.037405444047	366.484275285926	671.644825631367	392.088206100615	568.973960024942	565.265786596718	319.986535612036	626.091851001889	581.027119548867	213.084625500752	569.673304376540	405.046798990724	79.467441955008	535.038202719584	584.233581580218	102.207896638490	573.616660750226	485.471790518307	51.108219154725	606.778188479765	690.929837687107	36.458829445464	595.230037650266	710.583453728705	38.466529969754	398.252181908918	790.554619694151	36.184444872414	323.427529368478	871.530683007759	97.478296648427	355.565832454024	1001.400966739657	45.083266207194	337.434935842402	618.990561653472	1113.881054285683	190.170043142765	666.956921850455	855.431975910123	181.769811717802	845.867263904446	1088.294460286917	766.337818124711	1095.137579332201	1089.497008327970	723.877818492116	
39	15.282285714286	772.161562195218	965.154655045761	308.853682774101	559.916318144877	1005.884484279456	470.849281216544	714.428153809478	1446.665327149904	323.871263758772	827.231763445648	1363.718992250867	472.252640803649	752.321446960915	1421.123768623470	656.545198004111	721.553277010146	1494.818954260896	480.520749759537	787.596131006839	935.991245951684	583.289950614944	790.217379228183	725.185062354903	564.714859495446	684.331881555363	632.641571242171	623.891379515675	754.757797181746	562.580787212593	553.429057745663	734.308012967560	465.712759739570	565.370043493768	841.261096292182	766.915127048770	346.075492182808	774.421965316016	638.422932688507	281.996499422547	867.307530836703	572.090373286767	347.985786706666	877.150506409288	499.129932556665	357.255290464847	854.431522916122	424.988202971697	349.414071767320	774.852509253721	306.121380996569	294.005858731110	828.027371703183	197.406175299101	366.161215175081	673.990352100946	391.699099558416	568.926125235624	565.751443915150	322.251373746579	625.785938337582	579.591193189617	214.717984262986	570.070130953374	400.675016073562	85.111361029717	535.540600351712	580.225803839824	102.895148120452	574.138091490618	480.275151622940	54.074477696062	606.980020745511	684.805177450308	36.195627853665	595.216954096736	704.336068313144	38.332769947094	398.247456818652	784.282391590025	36.047983808415	323.330115333633	865.322409520191	97.254344546730	355.573671255095	995.235620089539	44.685125210284	337.420092609960	624.073433290586	1113.062934731723	185.471903760359	680.230740459674	856.290180101111	175.535803676944	838.369519990952	1086.140076944377	764.131155007329	1088.399740668672	1073.967313682178	726.546966645665	
